{"asset":{"version":"2.0","generator":"Blockbench 5.0.7 glTF exporter"},"scenes":[{"nodes":[18],"name":"blockbench_export"}],"scene":0,"nodes":[{"translation":[-0.03125,-0.03750000000000009,0],"name":"bEarExtra.L"},{"translation":[-0.21875,0.203125,0],"name":"bEar.L","children":[0]},{"translation":[0.03125,-0.03750000000000009,0],"name":"bEarExtra.R"},{"translation":[0.21875,0.203125,0],"name":"bEar.R","children":[2]},{"translation":[0,0.4375,0.203125],"name":"bHairExtra"},{"translation":[0,0.046875,0],"name":"bHead","children":[1,3,4]},{"translation":[0,0.375,0],"name":"bNeck","children":[5]},{"translation":[-0.0625,-0.3125,0],"name":"bLowerArm.L"},{"translation":[-0.1875,0.328125,0],"name":"bUpperArm.L","children":[7]},{"translation":[0.0625,-0.3125,0],"name":"bLowerArm.R"},{"translation":[0.1875,0.328125,0],"name":"bUpperArm.R","children":[9]},{"translation":[0,0.203125,0],"name":"bTorso","children":[6,8,10]},{"translation":[0,-0.359375,0],"name":"bLowerLeg.L"},{"translation":[-0.0875,-0.046875,0],"name":"bUpperLeg.L","children":[12]},{"translation":[0,-0.359375,0],"name":"bLowerLeg.R"},{"translation":[0.0875,-0.046875,0],"name":"bUpperLeg.R","children":[14]},{"translation":[0,0.84375,0],"name":"bHips","children":[11,13,15]},{"name":"Undead","children":[16]},{"translation":[0,-0.078125,0],"name":"Undead","mesh":0,"children":[17],"skin":0}],"bufferViews":[{"buffer":0,"byteOffset":0,"byteLength":4080,"target":34962,"byteStride":12},{"buffer":0,"byteOffset":4080,"byteLength":4080,"target":34962,"byteStride":12},{"buffer":0,"byteOffset":8160,"byteLength":2720,"target":34962,"byteStride":8},{"buffer":0,"byteOffset":10880,"byteLength":2720,"target":34962,"byteStride":8},{"buffer":0,"byteOffset":13600,"byteLength":5440,"target":34962,"byteStride":16},{"buffer":0,"byteOffset":19040,"byteLength":1008,"target":34963},{"buffer":0,"byteOffset":20048,"byteLength":1152},{"buffer":0,"byteOffset":21200,"byteLength":8},{"buffer":0,"byteOffset":21208,"byteLength":32},{"buffer":0,"byteOffset":21240,"byteLength":128},{"buffer":0,"byteOffset":21368,"byteLength":512},{"buffer":0,"byteOffset":21880,"byteLength":8},{"buffer":0,"byteOffset":21888,"byteLength":32},{"buffer":0,"byteOffset":21920,"byteLength":8},{"buffer":0,"byteOffset":21928,"byteLength":32},{"buffer":0,"byteOffset":21960,"byteLength":136},{"buffer":0,"byteOffset":22096,"byteLength":544},{"buffer":0,"byteOffset":22640,"byteLength":128},{"buffer":0,"byteOffset":22768,"byteLength":512},{"buffer":0,"byteOffset":23280,"byteLength":132},{"buffer":0,"byteOffset":23412,"byteLength":528},{"buffer":0,"byteOffset":23940,"byteLength":4},{"buffer":0,"byteOffset":23944,"byteLength":16},{"buffer":0,"byteOffset":23960,"byteLength":128},{"buffer":0,"byteOffset":24088,"byteLength":512},{"buffer":0,"byteOffset":24600,"byteLength":96},{"buffer":0,"byteOffset":24696,"byteLength":384},{"buffer":0,"byteOffset":25080,"byteLength":96},{"buffer":0,"byteOffset":25176,"byteLength":384},{"buffer":0,"byteOffset":25560,"byteLength":100},{"buffer":0,"byteOffset":25660,"byteLength":400},{"buffer":0,"byteOffset":26060,"byteLength":100},{"buffer":0,"byteOffset":26160,"byteLength":400},{"buffer":0,"byteOffset":26560,"byteLength":100},{"buffer":0,"byteOffset":26660,"byteLength":400},{"buffer":0,"byteOffset":27060,"byteLength":108},{"buffer":0,"byteOffset":27168,"byteLength":432},{"buffer":0,"byteOffset":27600,"byteLength":104},{"buffer":0,"byteOffset":27704,"byteLength":416},{"buffer":0,"byteOffset":28120,"byteLength":104},{"buffer":0,"byteOffset":28224,"byteLength":416},{"buffer":0,"byteOffset":28640,"byteLength":8},{"buffer":0,"byteOffset":28648,"byteLength":32},{"buffer":0,"byteOffset":28680,"byteLength":56},{"buffer":0,"byteOffset":28736,"byteLength":224},{"buffer":0,"byteOffset":28960,"byteLength":60},{"buffer":0,"byteOffset":29020,"byteLength":240},{"buffer":0,"byteOffset":29260,"byteLength":56},{"buffer":0,"byteOffset":29316,"byteLength":224},{"buffer":0,"byteOffset":29540,"byteLength":56},{"buffer":0,"byteOffset":29596,"byteLength":224},{"buffer":0,"byteOffset":29820,"byteLength":8},{"buffer":0,"byteOffset":29828,"byteLength":32},{"buffer":0,"byteOffset":29860,"byteLength":8},{"buffer":0,"byteOffset":29868,"byteLength":32},{"buffer":0,"byteOffset":29900,"byteLength":56},{"buffer":0,"byteOffset":29956,"byteLength":224},{"buffer":0,"byteOffset":30180,"byteLength":8},{"buffer":0,"byteOffset":30188,"byteLength":32},{"buffer":0,"byteOffset":30220,"byteLength":8},{"buffer":0,"byteOffset":30228,"byteLength":32},{"buffer":0,"byteOffset":30260,"byteLength":8},{"buffer":0,"byteOffset":30268,"byteLength":32},{"buffer":0,"byteOffset":30300,"byteLength":8},{"buffer":0,"byteOffset":30308,"byteLength":32},{"buffer":0,"byteOffset":30340,"byteLength":8},{"buffer":0,"byteOffset":30348,"byteLength":32},{"buffer":0,"byteOffset":30380,"byteLength":72},{"buffer":0,"byteOffset":30452,"byteLength":288},{"buffer":0,"byteOffset":30740,"byteLength":68},{"buffer":0,"byteOffset":30808,"byteLength":272},{"buffer":0,"byteOffset":31080,"byteLength":68},{"buffer":0,"byteOffset":31148,"byteLength":204},{"buffer":0,"byteOffset":31352,"byteLength":64},{"buffer":0,"byteOffset":31416,"byteLength":256},{"buffer":0,"byteOffset":31672,"byteLength":8},{"buffer":0,"byteOffset":31680,"byteLength":32},{"buffer":0,"byteOffset":31712,"byteLength":64},{"buffer":0,"byteOffset":31776,"byteLength":256},{"buffer":0,"byteOffset":32032,"byteLength":64},{"buffer":0,"byteOffset":32096,"byteLength":192},{"buffer":0,"byteOffset":32288,"byteLength":68},{"buffer":0,"byteOffset":32356,"byteLength":272}],"buffers":[{"byteLength":32628,"uri":"data:application/octet-stream;base64,"}],"accessors":[{"bufferView":0,"componentType":5126,"count":340,"max":[0.34375,1.9131250381469727,0.2140275090932846],"min":[-0.34375,0.078125,-0.21597249805927277],"type":"VEC3"},{"bufferView":1,"componentType":5126,"count":340,"max":[1,1,1],"min":[-1,-1,-1],"type":"VEC3"},{"bufferView":2,"componentType":5126,"count":340,"max":[0.75,0.765625],"min":[0,0],"type":"VEC2"},{"bufferView":3,"componentType":5123,"count":340,"max":[0,17,0,0],"min":[0,1,0,0],"type":"VEC4"},{"bufferView":4,"componentType":5126,"count":340,"max":[0,1,0,0],"min":[0,1,0,0],"type":"VEC4"},{"bufferView":5,"componentType":5123,"count":504,"max":[339],"min":[0],"type":"SCALAR"},{"bufferView":6,"componentType":5126,"count":18,"max":[1,0,0,0,0,1,0,0,0,0,1,0,0.25,0,0,1],"min":[1,0,0,0,0,1,0,0,0,0,1,0,-0.25,-1.90625,-0.203125,1],"type":"MAT4"},{"bufferView":7,"componentType":5126,"count":2,"max":[1.75],"min":[0],"type":"SCALAR"},{"bufferView":8,"componentType":5126,"count":2,"max":[0.02528129518032074,-0.0024561022873967886,-0.011546055786311626,0.9996106624603271],"min":[0.02528129518032074,-0.0024561022873967886,-0.011546055786311626,0.9996106624603271],"type":"VEC4"},{"bufferView":9,"componentType":5126,"count":32,"max":[1.75],"min":[0],"type":"SCALAR"},{"bufferView":10,"componentType":5126,"count":32,"max":[-0.10821980983018875,-0.011851996183395386,0.10821980983018875,0.9882725477218628],"min":[-0.21468956768512726,-0.02746286429464817,0.08351808786392212,0.9726011157035828],"type":"VEC4"},{"bufferView":11,"componentType":5126,"count":2,"max":[1.75],"min":[0],"type":"SCALAR"},{"bufferView":12,"componentType":5126,"count":2,"max":[0,-0.13052618503570557,0,0.9914448857307434],"min":[0,-0.13052618503570557,0,0.9914448857307434],"type":"VEC4"},{"bufferView":13,"componentType":5126,"count":2,"max":[1.75],"min":[0],"type":"SCALAR"},{"bufferView":14,"componentType":5126,"count":2,"max":[-0.06540312618017197,0,0,0.9978589415550232],"min":[-0.06540312618017197,0,0,0.9978589415550232],"type":"VEC4"},{"bufferView":15,"componentType":5126,"count":34,"max":[1.75],"min":[0],"type":"SCALAR"},{"bufferView":16,"componentType":5126,"count":34,"max":[0.08715574443340302,0,0,0.9997619986534119],"min":[0.02181488461792469,0,0,0.9961947202682495],"type":"VEC4"},{"bufferView":17,"componentType":5126,"count":32,"max":[1.75],"min":[0],"type":"SCALAR"},{"bufferView":18,"componentType":5126,"count":32,"max":[0.1273023635149002,-0.004222992341965437,0.06648367643356323,0.999143660068512],"min":[-0.11031472682952881,-0.017886942252516747,0.03926219046115875,0.9904869794845581],"type":"VEC4"},{"bufferView":19,"componentType":5126,"count":33,"max":[1.75],"min":[0],"type":"SCALAR"},{"bufferView":20,"componentType":5126,"count":33,"max":[0.15212339162826538,0.009488373063504696,0,0.9907260537147522],"min":[0.10845260322093964,0,-0.0866377204656601,0.9883615374565125],"type":"VEC4"},{"bufferView":21,"componentType":5126,"count":1,"max":[0],"min":[0],"type":"SCALAR"},{"bufferView":22,"componentType":5126,"count":1,"max":[-0.04357787221670151,-0.0019026509253308177,0.04357787221670151,0.9980973601341248],"min":[-0.04357787221670151,-0.0019026509253308177,0.04357787221670151,0.9980973601341248],"type":"VEC4"},{"bufferView":23,"componentType":5126,"count":32,"max":[1.75],"min":[0],"type":"SCALAR"},{"bufferView":24,"componentType":5126,"count":32,"max":[0.13124138116836548,0.0002180205046897754,0.021670710295438766,0.9963008165359497],"min":[0.08593378216028214,-0.0025039049796760082,-0.0015990035608410835,0.9913451671600342],"type":"VEC4"},{"bufferView":25,"componentType":5126,"count":24,"max":[1.4166699647903442],"min":[0],"type":"SCALAR"},{"bufferView":26,"componentType":5126,"count":24,"max":[-0.08465473353862762,0.015134436078369617,0.0858316496014595,0.9964081048965454],"min":[-0.17937412858009338,-0.0016949927667155862,-0.008072021417319775,0.981060266494751],"type":"VEC4"},{"bufferView":27,"componentType":5126,"count":24,"max":[1.4166699647903442],"min":[0],"type":"SCALAR"},{"bufferView":28,"componentType":5126,"count":24,"max":[0.3978849947452545,0,0,0.9999918341636658],"min":[-0.13052618503570557,0,0,0.9174352884292603],"type":"VEC4"},{"bufferView":29,"componentType":5126,"count":25,"max":[1.4166699647903442],"min":[0],"type":"SCALAR"},{"bufferView":30,"componentType":5126,"count":25,"max":[-0.04539467766880989,0,0,0.9989691376686096],"min":[-0.4863353669643402,0,0,0.8737722039222717],"type":"VEC4"},{"bufferView":31,"componentType":5126,"count":25,"max":[1.4166699647903442],"min":[0],"type":"SCALAR"},{"bufferView":32,"componentType":5126,"count":25,"max":[0.14115479588508606,-0.00947827473282814,0.04320082068443298,0.999581515789032],"min":[-0.0260996725410223,-0.030102230608463287,-0.0866377204656601,0.9891141653060913],"type":"VEC4"},{"bufferView":33,"componentType":5126,"count":25,"max":[1.4166699647903442],"min":[0],"type":"SCALAR"},{"bufferView":34,"componentType":5126,"count":25,"max":[0.18464604020118713,0.015226042829453945,0,0.9995599985122681],"min":[0.0029090552125126123,0,-0.06440950930118561,0.9815135598182678],"type":"VEC4"},{"bufferView":35,"componentType":5126,"count":27,"max":[1.4166699647903442],"min":[0],"type":"SCALAR"},{"bufferView":36,"componentType":5126,"count":27,"max":[0.18085230886936188,0.1519635170698166,0.23401735723018646,0.9991618394851685],"min":[-0.13052618503570557,-0.02027604728937149,-0.012198792770504951,0.9632473587989807],"type":"VEC4"},{"bufferView":37,"componentType":5126,"count":26,"max":[1.4166699647903442],"min":[0],"type":"SCALAR"},{"bufferView":38,"componentType":5126,"count":26,"max":[0.1838981658220291,0,0.07066524028778076,0.9962703585624695],"min":[0.076443612575531,-0.016927575692534447,-0.0013539980864152312,0.9821509718894958],"type":"VEC4"},{"bufferView":39,"componentType":5126,"count":26,"max":[1.4166699647903442],"min":[0],"type":"SCALAR"},{"bufferView":40,"componentType":5126,"count":26,"max":[0.19509032368659973,0,0,1],"min":[-0.014508375898003578,0,0,0.9807852506637573],"type":"VEC4"},{"bufferView":41,"componentType":5126,"count":2,"max":[0.833329975605011],"min":[0],"type":"SCALAR"},{"bufferView":42,"componentType":5126,"count":2,"max":[-0.06540312618017197,0,0,0.9978589415550232],"min":[-0.06540312618017197,0,0,0.9978589415550232],"type":"VEC4"},{"bufferView":43,"componentType":5126,"count":14,"max":[0.833329975605011],"min":[0],"type":"SCALAR"},{"bufferView":44,"componentType":5126,"count":14,"max":[0.0502803660929203,0.029028678312897682,0.12321532517671585,0.998639702796936],"min":[-0.06540312618017197,-0.0001789899542927742,-0.05658577382564545,0.9908915758132935],"type":"VEC4"},{"bufferView":45,"componentType":5126,"count":15,"max":[0.833329975605011],"min":[0],"type":"SCALAR"},{"bufferView":46,"componentType":5126,"count":15,"max":[0.2798290252685547,0,0,0.9999767541885376],"min":[-0.04361938685178757,0,0,0.9600498676300049],"type":"VEC4"},{"bufferView":47,"componentType":5126,"count":14,"max":[0.833329975605011],"min":[0],"type":"SCALAR"},{"bufferView":48,"componentType":5126,"count":14,"max":[0.007272141054272652,0,0,1],"min":[-0.4226182699203491,0,0,0.9063078165054321],"type":"VEC4"},{"bufferView":49,"componentType":5126,"count":14,"max":[0.833329975605011],"min":[0],"type":"SCALAR"},{"bufferView":50,"componentType":5126,"count":14,"max":[0.1909751445055008,0.00689275236800313,0.03109092265367508,0.9997372627258301],"min":[-0.24397139251232147,-0.03757540136575699,-0.10884096473455429,0.9692596197128296],"type":"VEC4"},{"bufferView":51,"componentType":5126,"count":2,"max":[0.833329975605011],"min":[0],"type":"SCALAR"},{"bufferView":52,"componentType":5126,"count":2,"max":[0.5772932767868042,-0.17454655468463898,-0.12798282504081726,0.7873286604881287],"min":[0.5772932767868042,-0.17454655468463898,-0.12798282504081726,0.7873286604881287],"type":"VEC4"},{"bufferView":53,"componentType":5126,"count":2,"max":[0.833329975605011],"min":[0],"type":"SCALAR"},{"bufferView":54,"componentType":5126,"count":2,"max":[0.08715574443340302,0,0,0.9961947202682495],"min":[0.08715574443340302,0,0,0.9961947202682495],"type":"VEC4"},{"bufferView":55,"componentType":5126,"count":14,"max":[0.833329975605011],"min":[0],"type":"SCALAR"},{"bufferView":56,"componentType":5126,"count":14,"max":[0.24253740906715393,0.07292594015598297,0.14177341759204865,0.9990172982215881],"min":[-0.13052618503570557,-0.032568641006946564,-0.01788882352411747,0.9569523334503174],"type":"VEC4"},{"bufferView":57,"componentType":5126,"count":2,"max":[0.833329975605011],"min":[0],"type":"SCALAR"},{"bufferView":58,"componentType":5126,"count":2,"max":[0.5890595316886902,0.07028628140687943,0.05153603106737137,0.8033758401870728],"min":[0.5890595316886902,0.07028628140687943,0.05153603106737137,0.8033758401870728],"type":"VEC4"},{"bufferView":59,"componentType":5126,"count":2,"max":[0.833329975605011],"min":[0],"type":"SCALAR"},{"bufferView":60,"componentType":5126,"count":2,"max":[0.08715574443340302,0,0,0.9961947202682495],"min":[0.08715574443340302,0,0,0.9961947202682495],"type":"VEC4"},{"bufferView":61,"componentType":5126,"count":2,"max":[1],"min":[0],"type":"SCALAR"},{"bufferView":62,"componentType":5126,"count":2,"max":[-0.08707278966903687,-0.0038016801699995995,-0.0434534028172493,0.9952465295791626],"min":[-0.08707278966903687,-0.0038016801699995995,-0.0434534028172493,0.9952465295791626],"type":"VEC4"},{"bufferView":63,"componentType":5126,"count":2,"max":[1],"min":[0],"type":"SCALAR"},{"bufferView":64,"componentType":5126,"count":2,"max":[-0.13024672865867615,0.002852844540029764,-0.06534087657928467,0.9893221259117126],"min":[-0.13024672865867615,0.002852844540029764,-0.06534087657928467,0.9893221259117126],"type":"VEC4"},{"bufferView":65,"componentType":5126,"count":2,"max":[1],"min":[0],"type":"SCALAR"},{"bufferView":66,"componentType":5126,"count":2,"max":[-0.15212339162826538,0,0,0.9883615374565125],"min":[-0.15212339162826538,0,0,0.9883615374565125],"type":"VEC4"},{"bufferView":67,"componentType":5126,"count":18,"max":[1],"min":[0],"type":"SCALAR"},{"bufferView":68,"componentType":5126,"count":18,"max":[0.18706703186035156,0.38358378410339355,0.047061558812856674,0.9249992966651917],"min":[0.052786216139793396,0.372348427772522,-0.07176957279443741,0.9048185348510742],"type":"VEC4"},{"bufferView":69,"componentType":5126,"count":17,"max":[1],"min":[0],"type":"SCALAR"},{"bufferView":70,"componentType":5126,"count":17,"max":[0.9563965797424316,0.08641011267900467,-0.01137610711157322,0.4210100769996643],"min":[0.9028590321540833,0.083673857152462,-0.02438870631158352,0.27876418828964233],"type":"VEC4"},{"bufferView":71,"componentType":5126,"count":17,"max":[1],"min":[0],"type":"SCALAR"},{"bufferView":72,"componentType":5126,"count":17,"max":[-0.1875,0.328125,0.046875],"min":[-0.1875,0.328125,0],"type":"VEC3"},{"bufferView":73,"componentType":5126,"count":16,"max":[1],"min":[0],"type":"SCALAR"},{"bufferView":74,"componentType":5126,"count":16,"max":[0.5,0,0,0.9396926164627075],"min":[0.3420201539993286,0,0,0.8660253882408142],"type":"VEC4"},{"bufferView":75,"componentType":5126,"count":2,"max":[1],"min":[0],"type":"SCALAR"},{"bufferView":76,"componentType":5126,"count":2,"max":[-0.11055108159780502,0.04806304723024368,0.03857467323541641,0.9919578433036804],"min":[-0.11055108159780502,0.04806304723024368,0.03857467323541641,0.9919578433036804],"type":"VEC4"},{"bufferView":77,"componentType":5126,"count":16,"max":[1],"min":[0],"type":"SCALAR"},{"bufferView":78,"componentType":5126,"count":16,"max":[0.9500877857208252,-0.08312191069126129,0.026208236813545227,0.44060564041137695],"min":[0.8934598565101624,-0.08614138513803482,0.013258426450192928,0.2995615303516388],"type":"VEC4"},{"bufferView":79,"componentType":5126,"count":16,"max":[1],"min":[0],"type":"SCALAR"},{"bufferView":80,"componentType":5126,"count":16,"max":[0.1875,0.328125,0.03125],"min":[0.1875,0.328125,0],"type":"VEC3"},{"bufferView":81,"componentType":5126,"count":17,"max":[1],"min":[0],"type":"SCALAR"},{"bufferView":82,"componentType":5126,"count":17,"max":[0.537299633026123,0,0,0.9320078492164612],"min":[0.36243805289268494,0,0,0.8433914184570312],"type":"VEC4"}],"materials":[{"pbrMetallicRoughness":{"metallicFactor":0,"roughnessFactor":1,"baseColorTexture":{"index":0}},"alphaMode":"MASK","alphaCutoff":0.05,"doubleSided":true}],"textures":[{"sampler":0,"source":0,"name":"tZombie"}],"samplers":[{"magFilter":9728,"minFilter":9728,"wrapS":33071,"wrapT":33071}],"images":[{"mimeType":"image/png","uri":"data:image/png;base64,"}],"meshes":[{"primitives":[{"mode":4,"attributes":{"POSITION":0,"NORMAL":1,"TEXCOORD_0":2,"JOINTS_0":3,"WEIGHTS_0":4},"indices":5,"material":0}]}],"skins":[{"inverseBindMatrices":6,"joints":[17,16,11,6,5,1,0,3,2,4,8,7,10,9,13,12,15,14],"skeleton":17}],"animations":[{"name":"aIdle-loop","samplers":[{"input":7,"output":8,"interpolation":"LINEAR"},{"input":9,"output":10,"interpolation":"LINEAR"},{"input":11,"output":12,"interpolation":"LINEAR"},{"input":13,"output":14,"interpolation":"LINEAR"},{"input":15,"output":16,"interpolation":"LINEAR"},{"input":17,"output":18,"interpolation":"LINEAR"},{"input":19,"output":20,"interpolation":"LINEAR"},{"input":21,"output":22,"interpolation":"LINEAR"},{"input":23,"output":24,"interpolation":"LINEAR"}],"channels":[{"sampler":0,"target":{"node":16,"path":"rotation"}},{"sampler":1,"target":{"node":11,"path":"rotation"}},{"sampler":2,"target":{"node":13,"path":"rotation"}},{"sampler":3,"target":{"node":12,"path":"rotation"}},{"sampler":4,"target":{"node":6,"path":"rotation"}},{"sampler":5,"target":{"node":5,"path":"rotation"}},{"sampler":6,"target":{"node":8,"path":"rotation"}},{"sampler":7,"target":{"node":15,"path":"rotation"}},{"sampler":8,"target":{"node":10,"path":"rotation"}}]},{"name":"aWalk-loop","samplers":[{"input":25,"output":26,"interpolation":"LINEAR"},{"input":27,"output":28,"interpolation":"LINEAR"},{"input":29,"output":30,"interpolation":"LINEAR"},{"input":31,"output":32,"interpolation":"LINEAR"},{"input":33,"output":34,"interpolation":"LINEAR"},{"input":35,"output":36,"interpolation":"LINEAR"},{"input":37,"output":38,"interpolation":"LINEAR"},{"input":39,"output":40,"interpolation":"LINEAR"}],"channels":[{"sampler":0,"target":{"node":11,"path":"rotation"}},{"sampler":1,"target":{"node":13,"path":"rotation"}},{"sampler":2,"target":{"node":12,"path":"rotation"}},{"sampler":3,"target":{"node":5,"path":"rotation"}},{"sampler":4,"target":{"node":8,"path":"rotation"}},{"sampler":5,"target":{"node":15,"path":"rotation"}},{"sampler":6,"target":{"node":10,"path":"rotation"}},{"sampler":7,"target":{"node":9,"path":"rotation"}}]},{"name":"aChase-loop","samplers":[{"input":41,"output":42,"interpolation":"LINEAR"},{"input":43,"output":44,"interpolation":"LINEAR"},{"input":45,"output":46,"interpolation":"LINEAR"},{"input":47,"output":48,"interpolation":"LINEAR"},{"input":49,"output":50,"interpolation":"LINEAR"},{"input":51,"output":52,"interpolation":"LINEAR"},{"input":53,"output":54,"interpolation":"LINEAR"},{"input":55,"output":56,"interpolation":"LINEAR"},{"input":57,"output":58,"interpolation":"LINEAR"},{"input":59,"output":60,"interpolation":"LINEAR"}],"channels":[{"sampler":0,"target":{"node":16,"path":"rotation"}},{"sampler":1,"target":{"node":11,"path":"rotation"}},{"sampler":2,"target":{"node":13,"path":"rotation"}},{"sampler":3,"target":{"node":12,"path":"rotation"}},{"sampler":4,"target":{"node":5,"path":"rotation"}},{"sampler":5,"target":{"node":8,"path":"rotation"}},{"sampler":6,"target":{"node":7,"path":"rotation"}},{"sampler":7,"target":{"node":15,"path":"rotation"}},{"sampler":8,"target":{"node":10,"path":"rotation"}},{"sampler":9,"target":{"node":9,"path":"rotation"}}]},{"name":"aObsessed-loop","samplers":[{"input":61,"output":62,"interpolation":"LINEAR"},{"input":63,"output":64,"interpolation":"LINEAR"},{"input":65,"output":66,"interpolation":"LINEAR"},{"input":67,"output":68,"interpolation":"LINEAR"},{"input":69,"output":70,"interpolation":"LINEAR"},{"input":71,"output":72,"interpolation":"LINEAR"},{"input":73,"output":74,"interpolation":"LINEAR"},{"input":75,"output":76,"interpolation":"LINEAR"},{"input":77,"output":78,"interpolation":"LINEAR"},{"input":79,"output":80,"interpolation":"LINEAR"},{"input":81,"output":82,"interpolation":"LINEAR"}],"channels":[{"sampler":0,"target":{"node":11,"path":"rotation"}},{"sampler":1,"target":{"node":13,"path":"rotation"}},{"sampler":2,"target":{"node":12,"path":"rotation"}},{"sampler":3,"target":{"node":5,"path":"rotation"}},{"sampler":4,"target":{"node":8,"path":"rotation"}},{"sampler":5,"target":{"node":8,"path":"translation"}},{"sampler":6,"target":{"node":7,"path":"rotation"}},{"sampler":7,"target":{"node":15,"path":"rotation"}},{"sampler":8,"target":{"node":10,"path":"rotation"}},{"sampler":9,"target":{"node":10,"path":"translation"}},{"sampler":10,"target":{"node":9,"path":"rotation"}}]}]}